<mxfile host="Electron" agent="Mozilla/5.0 (Windows NT 10.0; Win64; x64) AppleWebKit/537.36 (KHTML, like Gecko) draw.io/24.7.17 Chrome/128.0.6613.36 Electron/32.0.1 Safari/537.36" version="24.7.17">
  <diagram name="Page-1" id="XoHRZ2Y9CMgjiDwwm76U">
    <mxGraphModel dx="1229" dy="683" grid="1" gridSize="10" guides="1" tooltips="1" connect="1" arrows="1" fold="1" page="1" pageScale="1" pageWidth="850" pageHeight="1100" math="0" shadow="0">
      <root>
        <mxCell id="0" />
        <mxCell id="1" parent="0" />
        <mxCell id="4ruqqGMgMtJPefRoe_D4-3" value="" style="edgeStyle=orthogonalEdgeStyle;rounded=0;orthogonalLoop=1;jettySize=auto;html=1;" edge="1" parent="1" source="4ruqqGMgMtJPefRoe_D4-1" target="4ruqqGMgMtJPefRoe_D4-2">
          <mxGeometry relative="1" as="geometry" />
        </mxCell>
        <mxCell id="4ruqqGMgMtJPefRoe_D4-5" value="" style="edgeStyle=orthogonalEdgeStyle;rounded=0;orthogonalLoop=1;jettySize=auto;html=1;" edge="1" parent="1" source="4ruqqGMgMtJPefRoe_D4-1" target="4ruqqGMgMtJPefRoe_D4-4">
          <mxGeometry relative="1" as="geometry" />
        </mxCell>
        <mxCell id="4ruqqGMgMtJPefRoe_D4-7" value="" style="edgeStyle=orthogonalEdgeStyle;rounded=0;orthogonalLoop=1;jettySize=auto;html=1;" edge="1" parent="1" source="4ruqqGMgMtJPefRoe_D4-1" target="4ruqqGMgMtJPefRoe_D4-6">
          <mxGeometry relative="1" as="geometry" />
        </mxCell>
        <mxCell id="4ruqqGMgMtJPefRoe_D4-28" style="edgeStyle=orthogonalEdgeStyle;rounded=0;orthogonalLoop=1;jettySize=auto;html=1;exitX=0.5;exitY=1;exitDx=0;exitDy=0;entryX=0.5;entryY=0;entryDx=0;entryDy=0;" edge="1" parent="1" source="4ruqqGMgMtJPefRoe_D4-1" target="4ruqqGMgMtJPefRoe_D4-11">
          <mxGeometry relative="1" as="geometry" />
        </mxCell>
        <mxCell id="4ruqqGMgMtJPefRoe_D4-1" value="Mobiele applicatie voor het documenteren van dieren in het wild" style="ellipse;whiteSpace=wrap;html=1;" vertex="1" parent="1">
          <mxGeometry x="420" y="290" width="120" height="80" as="geometry" />
        </mxCell>
        <mxCell id="4ruqqGMgMtJPefRoe_D4-23" style="edgeStyle=orthogonalEdgeStyle;rounded=0;orthogonalLoop=1;jettySize=auto;html=1;exitX=0;exitY=0.5;exitDx=0;exitDy=0;entryX=1;entryY=0.5;entryDx=0;entryDy=0;" edge="1" parent="1" source="4ruqqGMgMtJPefRoe_D4-2" target="4ruqqGMgMtJPefRoe_D4-22">
          <mxGeometry relative="1" as="geometry" />
        </mxCell>
        <mxCell id="4ruqqGMgMtJPefRoe_D4-25" style="edgeStyle=orthogonalEdgeStyle;rounded=0;orthogonalLoop=1;jettySize=auto;html=1;exitX=0;exitY=0.5;exitDx=0;exitDy=0;entryX=1;entryY=0.5;entryDx=0;entryDy=0;" edge="1" parent="1" source="4ruqqGMgMtJPefRoe_D4-2" target="4ruqqGMgMtJPefRoe_D4-14">
          <mxGeometry relative="1" as="geometry" />
        </mxCell>
        <mxCell id="4ruqqGMgMtJPefRoe_D4-27" style="edgeStyle=orthogonalEdgeStyle;rounded=0;orthogonalLoop=1;jettySize=auto;html=1;exitX=0;exitY=0.5;exitDx=0;exitDy=0;entryX=1;entryY=0.5;entryDx=0;entryDy=0;" edge="1" parent="1" source="4ruqqGMgMtJPefRoe_D4-2" target="4ruqqGMgMtJPefRoe_D4-26">
          <mxGeometry relative="1" as="geometry" />
        </mxCell>
        <mxCell id="4ruqqGMgMtJPefRoe_D4-2" value="Planning" style="whiteSpace=wrap;html=1;" vertex="1" parent="1">
          <mxGeometry x="220" y="300" width="120" height="60" as="geometry" />
        </mxCell>
        <mxCell id="4ruqqGMgMtJPefRoe_D4-30" value="" style="edgeStyle=orthogonalEdgeStyle;rounded=0;orthogonalLoop=1;jettySize=auto;html=1;" edge="1" parent="1" source="4ruqqGMgMtJPefRoe_D4-4" target="4ruqqGMgMtJPefRoe_D4-29">
          <mxGeometry relative="1" as="geometry" />
        </mxCell>
        <mxCell id="4ruqqGMgMtJPefRoe_D4-32" value="" style="edgeStyle=orthogonalEdgeStyle;rounded=0;orthogonalLoop=1;jettySize=auto;html=1;" edge="1" parent="1" source="4ruqqGMgMtJPefRoe_D4-4" target="4ruqqGMgMtJPefRoe_D4-31">
          <mxGeometry relative="1" as="geometry" />
        </mxCell>
        <mxCell id="4ruqqGMgMtJPefRoe_D4-34" value="" style="edgeStyle=orthogonalEdgeStyle;rounded=0;orthogonalLoop=1;jettySize=auto;html=1;" edge="1" parent="1" source="4ruqqGMgMtJPefRoe_D4-4" target="4ruqqGMgMtJPefRoe_D4-33">
          <mxGeometry relative="1" as="geometry" />
        </mxCell>
        <mxCell id="4ruqqGMgMtJPefRoe_D4-4" value="Gebruikers" style="whiteSpace=wrap;html=1;" vertex="1" parent="1">
          <mxGeometry x="420" y="140" width="120" height="60" as="geometry" />
        </mxCell>
        <mxCell id="4ruqqGMgMtJPefRoe_D4-36" value="" style="edgeStyle=orthogonalEdgeStyle;rounded=0;orthogonalLoop=1;jettySize=auto;html=1;" edge="1" parent="1" source="4ruqqGMgMtJPefRoe_D4-6" target="4ruqqGMgMtJPefRoe_D4-35">
          <mxGeometry relative="1" as="geometry" />
        </mxCell>
        <mxCell id="4ruqqGMgMtJPefRoe_D4-38" style="edgeStyle=orthogonalEdgeStyle;rounded=0;orthogonalLoop=1;jettySize=auto;html=1;exitX=1;exitY=0.5;exitDx=0;exitDy=0;entryX=0;entryY=0.5;entryDx=0;entryDy=0;" edge="1" parent="1" source="4ruqqGMgMtJPefRoe_D4-6" target="4ruqqGMgMtJPefRoe_D4-37">
          <mxGeometry relative="1" as="geometry" />
        </mxCell>
        <mxCell id="4ruqqGMgMtJPefRoe_D4-40" style="edgeStyle=orthogonalEdgeStyle;rounded=0;orthogonalLoop=1;jettySize=auto;html=1;exitX=1;exitY=0.5;exitDx=0;exitDy=0;entryX=0;entryY=0.5;entryDx=0;entryDy=0;" edge="1" parent="1" source="4ruqqGMgMtJPefRoe_D4-6" target="4ruqqGMgMtJPefRoe_D4-39">
          <mxGeometry relative="1" as="geometry" />
        </mxCell>
        <mxCell id="4ruqqGMgMtJPefRoe_D4-6" value="Belemmeringen om op te lossen" style="whiteSpace=wrap;html=1;" vertex="1" parent="1">
          <mxGeometry x="620" y="300" width="120" height="60" as="geometry" />
        </mxCell>
        <mxCell id="4ruqqGMgMtJPefRoe_D4-42" value="" style="edgeStyle=orthogonalEdgeStyle;rounded=0;orthogonalLoop=1;jettySize=auto;html=1;" edge="1" parent="1" source="4ruqqGMgMtJPefRoe_D4-11" target="4ruqqGMgMtJPefRoe_D4-41">
          <mxGeometry relative="1" as="geometry" />
        </mxCell>
        <mxCell id="4ruqqGMgMtJPefRoe_D4-44" value="" style="edgeStyle=orthogonalEdgeStyle;rounded=0;orthogonalLoop=1;jettySize=auto;html=1;" edge="1" parent="1" source="4ruqqGMgMtJPefRoe_D4-11" target="4ruqqGMgMtJPefRoe_D4-43">
          <mxGeometry relative="1" as="geometry" />
        </mxCell>
        <mxCell id="4ruqqGMgMtJPefRoe_D4-46" value="" style="edgeStyle=orthogonalEdgeStyle;rounded=0;orthogonalLoop=1;jettySize=auto;html=1;" edge="1" parent="1" source="4ruqqGMgMtJPefRoe_D4-11" target="4ruqqGMgMtJPefRoe_D4-45">
          <mxGeometry relative="1" as="geometry" />
        </mxCell>
        <mxCell id="4ruqqGMgMtJPefRoe_D4-11" value="Onduidelijkheden" style="rounded=0;whiteSpace=wrap;html=1;" vertex="1" parent="1">
          <mxGeometry x="420" y="440" width="120" height="60" as="geometry" />
        </mxCell>
        <mxCell id="4ruqqGMgMtJPefRoe_D4-14" value="Agile" style="whiteSpace=wrap;html=1;" vertex="1" parent="1">
          <mxGeometry x="30" y="390" width="120" height="60" as="geometry" />
        </mxCell>
        <mxCell id="4ruqqGMgMtJPefRoe_D4-22" value="DSDM" style="rounded=0;whiteSpace=wrap;html=1;" vertex="1" parent="1">
          <mxGeometry x="30" y="300" width="120" height="60" as="geometry" />
        </mxCell>
        <mxCell id="4ruqqGMgMtJPefRoe_D4-26" value="Scrum" style="rounded=0;whiteSpace=wrap;html=1;" vertex="1" parent="1">
          <mxGeometry x="30" y="210" width="120" height="60" as="geometry" />
        </mxCell>
        <mxCell id="4ruqqGMgMtJPefRoe_D4-29" value="Vrijwilligers Exotisch Nederland" style="whiteSpace=wrap;html=1;" vertex="1" parent="1">
          <mxGeometry x="220" y="140" width="120" height="60" as="geometry" />
        </mxCell>
        <mxCell id="4ruqqGMgMtJPefRoe_D4-31" value="Onbevoegde geinteresseerden" style="whiteSpace=wrap;html=1;" vertex="1" parent="1">
          <mxGeometry x="420" y="20" width="120" height="60" as="geometry" />
        </mxCell>
        <mxCell id="4ruqqGMgMtJPefRoe_D4-33" value="Kinderen" style="whiteSpace=wrap;html=1;" vertex="1" parent="1">
          <mxGeometry x="620" y="140" width="120" height="60" as="geometry" />
        </mxCell>
        <mxCell id="4ruqqGMgMtJPefRoe_D4-35" value="Het handmatig doorsturen van observaties kost veel werk" style="whiteSpace=wrap;html=1;" vertex="1" parent="1">
          <mxGeometry x="820" y="300" width="120" height="60" as="geometry" />
        </mxCell>
        <mxCell id="4ruqqGMgMtJPefRoe_D4-37" value="Niet alle meldingen zijn correct ingevuld waardoor de locatie lastig is om te bepalen" style="rounded=0;whiteSpace=wrap;html=1;" vertex="1" parent="1">
          <mxGeometry x="820" y="200" width="120" height="80" as="geometry" />
        </mxCell>
        <mxCell id="4ruqqGMgMtJPefRoe_D4-39" value="Niet heel Nederland wordt afgedekt met vrijwilligers, waardoor de dekking niet groot genoeg is" style="rounded=0;whiteSpace=wrap;html=1;" vertex="1" parent="1">
          <mxGeometry x="820" y="380" width="120" height="80" as="geometry" />
        </mxCell>
        <mxCell id="4ruqqGMgMtJPefRoe_D4-41" value="Het ontwerpen van een mobiele applicatie in C#" style="whiteSpace=wrap;html=1;rounded=0;" vertex="1" parent="1">
          <mxGeometry x="420" y="580" width="120" height="60" as="geometry" />
        </mxCell>
        <mxCell id="4ruqqGMgMtJPefRoe_D4-43" value="Het opslaan van ingestuurde observaties" style="whiteSpace=wrap;html=1;rounded=0;" vertex="1" parent="1">
          <mxGeometry x="620" y="440" width="120" height="60" as="geometry" />
        </mxCell>
        <mxCell id="4ruqqGMgMtJPefRoe_D4-45" value="Het ontwikkelen van educatieve spellen voor de app" style="whiteSpace=wrap;html=1;rounded=0;" vertex="1" parent="1">
          <mxGeometry x="220" y="440" width="120" height="60" as="geometry" />
        </mxCell>
      </root>
    </mxGraphModel>
  </diagram>
</mxfile>
